<svg width="49" height="49" viewBox="0 0 49 49" fill="none" xmlns="http://www.w3.org/2000/svg">
	<title>Email Icon</title>
	<path
		d="M24.4199 48.7803C37.6748 48.7803 48.4199 38.0351 48.4199 24.7803C48.4199 11.5254 37.6748 0.780273 24.4199 0.780273C11.1651 0.780273 0.419922 11.5254 0.419922 24.7803C0.419922 38.0351 11.1651 48.7803 24.4199 48.7803Z"
		fill="#F8F8F8" />
	<path
		d="M39.7402 14.3004C38.9702 13.5304 37.9602 13.1104 36.8702 13.1104H11.9702C10.8902 13.1104 9.87016 13.5304 9.10016 14.3004C8.33016 15.0704 7.91016 16.0803 7.91016 17.1703V32.3904C7.91016 33.4704 8.33016 34.4904 9.10016 35.2604C9.87016 36.0304 10.8802 36.4503 11.9702 36.4503H36.8702C37.9502 36.4503 38.9702 36.0304 39.7402 35.2604C40.5102 34.4904 40.9302 33.4804 40.9302 32.3904V17.1703C40.9302 16.0903 40.5102 15.0704 39.7402 14.3004ZM17.5402 24.5603L10.4902 31.6003V17.5104L17.5402 24.5603ZM25.4902 26.8004C25.3502 26.9404 25.1902 27.0504 25.0102 27.1204C24.6502 27.2704 24.2402 27.2704 23.8802 27.1204C23.7002 27.0404 23.5402 26.9404 23.4002 26.8004L12.2802 15.6904H36.5602L25.4902 26.8004ZM19.3602 26.3803L21.5602 28.5804C21.9402 28.9604 22.3802 29.2504 22.8702 29.4604C23.3602 29.6604 23.8802 29.7604 24.4102 29.7604H24.4202C24.9602 29.7504 25.4802 29.6404 25.9802 29.4304C26.4702 29.2204 26.9102 28.9103 27.2802 28.5303L29.4502 26.3604L36.9602 33.8704C36.9302 33.8704 36.9002 33.8704 36.8702 33.8704H11.9702C11.9402 33.8704 11.9102 33.8704 11.8702 33.8704L19.3602 26.3803ZM31.2702 24.5404L38.3502 17.4604V31.6204L31.2702 24.5404Z"
		fill="#26374A" />
</svg>