<svg width="49" height="49" viewBox="0 0 49 49" fill="none" xmlns="http://www.w3.org/2000/svg">
	<title>Virtual Assistant bot icon</title>
	<path
		d="M24.75 48.7695C38.0048 48.7695 48.75 38.0244 48.75 24.7695C48.75 11.5147 38.0048 0.769531 24.75 0.769531C11.4952 0.769531 0.75 11.5147 0.75 24.7695C0.75 38.0244 11.4952 48.7695 24.75 48.7695Z"
		fill="#F8F8F8" />
	<path
		d="M24.7499 26.54L23.6399 28.55C23.5299 28.74 23.2999 28.82 23.0899 28.73L22.1499 28.33L22.6699 31.64C22.6999 31.82 22.4799 31.93 22.3499 31.8L20.8899 30.38L20.6699 31.03C20.5899 31.27 20.3299 31.41 20.0799 31.35L18.6199 30.99L19.0399 33.01C19.0899 33.24 18.9599 33.48 18.7499 33.57L18.3599 33.73L21.2199 36.25C21.4299 36.43 21.5199 36.71 21.4599 36.98L21.2899 37.73L23.5799 37.37C23.8499 37.33 24.0899 37.55 24.0799 37.82V40.95H24.7499H25.4299V37.82C25.4199 37.55 25.6599 37.34 25.9299 37.37L28.1999 37.73L28.0299 36.98C27.9699 36.71 28.0599 36.43 28.2699 36.25L31.1299 33.73L30.3699 33.42L30.8699 31L28.9699 31.48L28.5999 30.4L27.1399 31.82C27.0099 31.95 26.7899 31.84 26.8199 31.66L27.3399 28.35L26.3999 28.75C26.1999 28.84 25.9599 28.76 25.8499 28.57L24.7499 26.54Z"
		fill="#F05667" />
	<path
		d="M13.3298 20.5799H36.1798C37.2798 20.5799 38.1698 19.6899 38.1698 18.5899V10.6399C38.1698 7.89992 35.9498 5.66992 33.1998 5.66992H16.3098C13.5698 5.66992 11.3398 7.88992 11.3398 10.6399V18.5899C11.3398 19.6899 12.2298 20.5799 13.3298 20.5799ZM14.3198 11.3899C14.3198 9.73992 15.6498 8.40992 17.2998 8.40992H32.1998C33.8498 8.40992 35.1798 9.73992 35.1798 11.3899V16.8499C35.1798 17.3999 34.7398 17.8399 34.1898 17.8399H15.3198C14.7698 17.8399 14.3298 17.3999 14.3298 16.8499V11.3899H14.3198Z"
		fill="#26374A" />
	<path
		d="M18.0599 15.0004C18.6799 15.0004 19.1899 14.5004 19.1899 13.8904C19.1899 13.7104 19.2799 13.5004 19.4299 13.3604C19.7199 13.0704 20.1399 13.0304 20.4799 13.3604C20.6299 13.5104 20.7199 13.7104 20.7199 13.8904C20.7199 14.4804 21.2499 15.0004 21.8499 15.0004C22.4899 15.0004 23.0199 14.4904 23.0199 13.8904C23.0199 13.1004 22.6999 12.3504 22.1199 11.7804C21.5599 11.2304 20.7499 10.9004 19.9699 10.9004C19.1699 10.9004 18.3999 11.2104 17.8199 11.7804C17.2399 12.3504 16.9199 13.1004 16.9199 13.8904C16.9299 14.4804 17.4599 15.0004 18.0599 15.0004Z"
		fill="#26374A" />
	<path
		d="M27.65 15.0004C28.25 15.0004 28.78 14.4804 28.78 13.8904C28.78 13.6804 28.85 13.4804 28.98 13.3604C29.28 13.0704 29.78 13.0704 30.08 13.3604C30.2 13.4804 30.28 13.6804 30.28 13.8904C30.28 14.4904 30.82 15.0004 31.45 15.0004C32.05 15.0004 32.58 14.4804 32.58 13.8904C32.58 13.1004 32.26 12.3504 31.68 11.7804C31.1 11.2104 30.34 10.9004 29.53 10.9004C28.73 10.9004 27.96 11.2104 27.38 11.7804C26.8 12.3504 26.48 13.1004 26.48 13.8904C26.48 14.4904 27.01 15.0004 27.65 15.0004Z"
		fill="#26374A" />
	<path
		d="M41.25 29.8204L37.91 27.0804C37.83 26.6104 37.75 26.1304 37.63 25.6604C36.93 22.8504 34.9 22.1104 32.59 22.1104H16.91C14.25 22.1104 12.57 22.8504 11.87 25.6604C11.75 26.1304 11.66 26.6104 11.59 27.0804L8.25004 29.8204C7.02004 29.1304 5.39004 29.1904 4.04004 30.0604C4.24004 30.8004 4.47004 31.5204 4.74004 32.2204C4.80004 32.1504 4.87004 32.0703 4.94004 32.0103C5.72004 31.3703 6.82004 31.4204 7.40004 32.1203C7.97004 32.8203 7.81004 33.9103 7.03004 34.5504C6.96004 34.6004 6.53004 34.9204 6.15004 35.2004C6.51004 35.8204 6.89004 36.4204 7.31004 37.0004C7.76004 36.6604 8.30004 36.2404 8.37004 36.1804C9.78004 35.0204 10.3 33.2204 9.81004 31.7204L11.37 30.4403C11.49 34.8603 13.13 38.9104 15.05 41.3004C17.81 44.7504 20.16 45.8604 24.69 45.8604H24.82C29.36 45.8604 31.7 44.7504 34.46 41.3004C36.38 38.9104 38.02 34.8603 38.14 30.4403L39.7 31.7204C39.21 33.2204 39.73 35.0104 41.14 36.1804C41.23 36.2504 41.86 36.7603 42.19 37.0103C42.63 36.3903 43.05 35.7604 43.42 35.0904C43.2 34.9704 42.58 34.6204 42.48 34.5404C41.7 33.9004 41.53 32.8104 42.11 32.1104C42.68 31.4104 43.79 31.3604 44.57 32.0004C44.65 32.0604 44.71 32.1404 44.77 32.2104C45.04 31.5104 45.27 30.7903 45.47 30.0504C44.12 29.1904 42.49 29.1304 41.25 29.8204ZM32.19 39.5904C30.01 42.3404 28.43 43.1003 24.84 43.1003C24.84 43.1003 24.84 43.1003 24.83 43.1003H24.71C21.11 43.1003 19.53 42.3504 17.35 39.5904C15.15 36.8004 13.55 31.4104 14.76 26.5004C15.13 24.9904 17.13 24.9504 17.2 24.9504H32.33C32.41 24.9504 34.41 24.9904 34.78 26.5004C35.99 31.4104 34.39 36.8004 32.19 39.5904Z"
		fill="#26374A" />
</svg>